<svg width="30" height="30" viewBox="0 0 30 30" fill="none" xmlns="http://www.w3.org/2000/svg">
<path fill-rule="evenodd" clip-rule="evenodd" d="M14.5833 0C6.52921 0 0 6.52914 0 14.5833C0 22.6374 6.52921 29.1667 14.5833 29.1667C22.6375 29.1667 29.1667 22.6375 29.1667 14.5833C29.1667 6.52914 22.6375 0 14.5833 0ZM14.5833 26.25C8.15035 26.25 2.91669 21.0163 2.91669 14.5833C2.91669 8.15028 8.15028 2.91669 14.5833 2.91669C21.0164 2.91669 26.25 8.15028 26.25 14.5833C26.25 21.0163 21.0164 26.25 14.5833 26.25ZM16.4095 8.75C16.4095 9.80738 15.6396 10.5729 14.5981 10.5729C13.5146 10.5729 12.7636 9.80731 12.7636 8.72977C12.7636 7.69412 13.5349 6.92713 14.5981 6.92713C15.6396 6.92713 16.4095 7.69412 16.4095 8.75ZM13.1282 13.125H16.0448V21.875H13.1282V13.125Z" fill="black"/>
</svg>
