<svg width="31" height="31" viewBox="0 0 31 31" fill="none" xmlns="http://www.w3.org/2000/svg">
<path d="M12.6716 16.79C12.4195 16.79 12.1778 16.8902 11.9996 17.0684C11.8213 17.2466 11.7212 17.4884 11.7212 17.7404C11.7212 17.9925 11.8213 18.2342 11.9996 18.4124C12.1778 18.5907 12.4195 18.6908 12.6716 18.6908H17.7403C17.9923 18.6908 18.2341 18.5907 18.4123 18.4124C18.5905 18.2342 18.6907 17.9925 18.6907 17.7404C18.6907 17.4884 18.5905 17.2466 18.4123 17.0684C18.2341 16.8902 17.9923 16.79 17.7403 16.79H12.6716Z" fill="black"/>
<path fill-rule="evenodd" clip-rule="evenodd" d="M18.5829 2.9525C18.8083 2.83983 19.0691 2.82125 19.3082 2.90085C19.5472 2.98046 19.7449 3.15172 19.8577 3.377L22.1551 7.97178C22.6966 7.99797 23.1908 8.04274 23.6377 8.1061C24.9758 8.29744 26.0833 8.71054 26.8702 9.68373C27.6571 10.6569 27.8295 11.8265 27.737 13.1748C27.6483 14.4813 27.2935 16.1299 26.8525 18.189L26.281 20.859C25.9832 22.249 25.7412 23.3756 25.4371 24.255C25.1203 25.1737 24.7021 25.9277 23.9899 26.5042C23.2778 27.0808 22.4516 27.3304 21.4885 27.4483C20.5635 27.561 19.4104 27.561 17.9911 27.561H12.4206C10.9989 27.561 9.84699 27.561 8.92196 27.4483C7.9589 27.3304 7.1327 27.0808 6.42055 26.5042C5.7084 25.9277 5.29023 25.1737 4.97344 24.2563C4.66931 23.3756 4.42855 22.249 4.1295 20.8602L3.558 18.1903C3.11702 16.1299 2.76348 14.4813 2.67351 13.1748C2.58101 11.8265 2.75334 10.6582 3.54026 9.68373C4.32591 8.71054 5.43342 8.29744 6.77156 8.1061C7.21929 8.04359 7.71349 7.99881 8.25415 7.97178L10.5553 3.377C10.6691 3.15351 10.8666 2.98404 11.1048 2.90552C11.3429 2.827 11.6025 2.8458 11.8268 2.95781C12.0512 3.06983 12.2222 3.26599 12.3026 3.50354C12.3829 3.74109 12.3662 4.00077 12.2559 4.22601L10.4058 7.92236C10.8671 7.91982 11.3524 7.91898 11.8618 7.91982H18.55C19.0594 7.91982 19.5447 7.92067 20.0059 7.92236L18.1571 4.22601C18.0445 4.00065 18.0259 3.73978 18.1055 3.50074C18.1851 3.2617 18.3564 3.06404 18.5816 2.95123M7.26322 9.95744L6.75255 10.9788C6.69565 11.0906 6.66145 11.2125 6.6519 11.3376C6.64235 11.4626 6.65766 11.5883 6.69693 11.7075C6.7362 11.8266 6.79866 11.9368 6.88072 12.0316C6.96277 12.1265 7.06279 12.2042 7.17501 12.2602C7.28723 12.3162 7.40943 12.3495 7.53456 12.3581C7.6597 12.3666 7.78529 12.3504 7.9041 12.3102C8.02291 12.27 8.13259 12.2066 8.22682 12.1239C8.32104 12.0411 8.39795 11.9404 8.4531 11.8278L9.45037 9.83326C10.1727 9.82059 10.9963 9.81932 11.9391 9.81932H18.4727C19.4154 9.81932 20.2391 9.81932 20.9614 9.83199L21.9587 11.8278C22.0724 12.0513 22.2699 12.2208 22.5081 12.2993C22.7462 12.3778 23.0058 12.359 23.2302 12.247C23.4545 12.135 23.6255 11.9388 23.7059 11.7013C23.7863 11.4637 23.7695 11.204 23.6592 10.9788L23.1485 9.95744L23.369 9.98659C24.4892 10.1475 25.0379 10.4402 25.3927 10.8774C25.7412 11.3083 25.9122 11.895 25.8438 12.9873H4.56794C4.49951 11.895 4.67058 11.3083 5.01905 10.8774C5.37386 10.4402 5.92255 10.1475 7.04273 9.98659L7.26322 9.95744ZM5.43342 17.8672C5.21556 16.8776 5.01237 15.8849 4.82391 14.8893H25.5879C25.3986 15.8848 25.195 16.8775 24.9771 17.8672L24.4347 20.4015C24.1205 21.8651 23.9025 22.8776 23.6402 23.6353C23.3868 24.3703 23.1283 24.7581 22.795 25.0267C22.463 25.2953 22.0284 25.4677 21.2592 25.5614C20.4621 25.659 19.4256 25.6603 17.929 25.6603H12.4815C10.9862 25.6603 9.94964 25.659 9.15258 25.5614C8.38214 25.4677 7.94876 25.2953 7.61676 25.0267C7.2835 24.7581 7.02373 24.369 6.77156 23.6353C6.50925 22.8776 6.29003 21.8651 5.97704 20.4015L5.43342 17.8672Z" fill="black"/>
</svg>
