<svg width="27" height="21" viewBox="0 0 27 21" fill="none" xmlns="http://www.w3.org/2000/svg">
<path d="M2.35667 20.4167C1.68486 20.4167 1.12438 20.1921 0.675208 19.7429C0.226042 19.2937 0.000972222 18.7328 0 18.06V2.35667C0 1.68486 0.22507 1.12437 0.675208 0.675208C1.12535 0.226041 1.68535 0.000972222 2.35521 0H23.8948C24.5656 0 25.1256 0.225069 25.5748 0.675208C26.024 1.12535 26.249 1.68583 26.25 2.35667V18.0615C26.25 18.7323 26.0249 19.2928 25.5748 19.7429C25.1247 20.1931 24.5647 20.4176 23.8948 20.4167H2.35667ZM13.125 10.3775L1.45833 2.74896V18.0615C1.45833 18.323 1.54243 18.5378 1.71062 18.706C1.87882 18.8742 2.09417 18.9583 2.35667 18.9583H23.8948C24.1563 18.9583 24.3712 18.8742 24.5394 18.706C24.7076 18.5378 24.7917 18.3225 24.7917 18.06V2.7475L13.125 10.3775ZM13.125 8.75L24.3425 1.45833H1.9075L13.125 8.75ZM1.45833 2.74896V1.45833V18.0615C1.45833 18.323 1.54243 18.5378 1.71062 18.706C1.87882 18.8742 2.09417 18.9583 2.35667 18.9583H1.45833V2.74896Z" fill="black"/>
</svg>
