<svg width="31" height="31" viewBox="0 0 31 31" fill="none" xmlns="http://www.w3.org/2000/svg">
<path d="M15.3327 23.5061L15.2059 23.6328L15.0666 23.5061C9.04746 18.0446 5.06853 14.4331 5.06853 10.771C5.06853 8.23663 6.9693 6.33587 9.50365 6.33587C11.4551 6.33587 13.3559 7.60304 14.0275 9.3264H16.3844C17.056 7.60304 18.9568 6.33587 20.9082 6.33587C23.4426 6.33587 25.3433 8.23663 25.3433 10.771C25.3433 14.4331 21.3644 18.0446 15.3327 23.5061ZM20.9082 3.80151C18.7033 3.80151 16.5872 4.82793 15.2059 6.43724C13.8247 4.82793 11.7085 3.80151 9.50365 3.80151C5.60075 3.80151 2.53418 6.85541 2.53418 10.771C2.53418 15.5482 6.84258 19.4638 13.3685 25.3815L15.2059 27.0542L17.0433 25.3815C23.5693 19.4638 27.8777 15.5482 27.8777 10.771C27.8777 6.85541 24.8111 3.80151 20.9082 3.80151Z" fill="black"/>
</svg>
