<svg width="29" height="28" viewBox="0 0 29 28" fill="none" xmlns="http://www.w3.org/2000/svg">
<path d="M20.5833 0C22.683 0 24.6966 0.812126 26.1813 2.25772C27.6659 3.70331 28.5 5.66396 28.5 7.70833V20.0417C28.5 22.086 27.6659 24.0467 26.1813 25.4923C24.6966 26.9379 22.683 27.75 20.5833 27.75H7.91667C5.81704 27.75 3.8034 26.9379 2.31874 25.4923C0.834075 24.0467 0 22.086 0 20.0417V7.70833C0 5.66396 0.834075 3.70331 2.31874 2.25772C3.8034 0.812126 5.81704 0 7.91667 0H20.5833ZM14.25 7.70833C12.5703 7.70833 10.9594 8.35803 9.77166 9.51451C8.58393 10.671 7.91667 12.2395 7.91667 13.875C7.91667 15.5105 8.58393 17.079 9.77166 18.2355C10.9594 19.392 12.5703 20.0417 14.25 20.0417C15.9297 20.0417 17.5406 19.392 18.7283 18.2355C19.9161 17.079 20.5833 15.5105 20.5833 13.875C20.5833 12.2395 19.9161 10.671 18.7283 9.51451C17.5406 8.35803 15.9297 7.70833 14.25 7.70833ZM14.25 10.7917C15.0899 10.7917 15.8953 11.1165 16.4892 11.6948C17.083 12.273 17.4167 13.0572 17.4167 13.875C17.4167 14.6928 17.083 15.477 16.4892 16.0552C15.8953 16.6335 15.0899 16.9583 14.25 16.9583C13.4101 16.9583 12.6047 16.6335 12.0108 16.0552C11.417 15.477 11.0833 14.6928 11.0833 13.875C11.0833 13.0572 11.417 12.273 12.0108 11.6948C12.6047 11.1165 13.4101 10.7917 14.25 10.7917ZM21.375 5.39583C20.9551 5.39583 20.5523 5.55826 20.2554 5.84738C19.9585 6.1365 19.7917 6.52862 19.7917 6.9375C19.7917 7.34638 19.9585 7.7385 20.2554 8.02762C20.5523 8.31674 20.9551 8.47917 21.375 8.47917C21.7949 8.47917 22.1977 8.31674 22.4946 8.02762C22.7915 7.7385 22.9583 7.34638 22.9583 6.9375C22.9583 6.52862 22.7915 6.1365 22.4946 5.84738C22.1977 5.55826 21.7949 5.39583 21.375 5.39583Z" fill="#2B2B2B"/>
</svg>
