<svg width="210" height="198" viewBox="0 0 210 198" fill="none" xmlns="http://www.w3.org/2000/svg">
<path d="M53 142V61.375L40.8125 34.8125L52.0625 29.5L66.75 61.0625H139.25L153.938 29.5L165.188 34.8125L153 61.375V142H53ZM90.5 98.25H115.5C117.271 98.25 118.756 97.65 119.956 96.45C121.156 95.25 121.754 93.7667 121.75 92C121.746 90.2333 121.146 88.75 119.95 87.55C118.754 86.35 117.271 85.75 115.5 85.75H90.5C88.7292 85.75 87.2458 86.35 86.05 87.55C84.8542 88.75 84.2542 90.2333 84.25 92C84.2458 93.7667 84.8458 95.2521 86.05 96.4563C87.2542 97.6604 88.7375 98.2583 90.5 98.25Z" fill="#CDB0F8"/>
<path d="M192.033 177.75L166.308 152.025C164.267 153.658 161.919 154.951 159.265 155.904C156.61 156.857 153.786 157.333 150.792 157.333C143.374 157.333 137.096 154.764 131.959 149.624C126.823 144.484 124.253 138.207 124.25 130.792C124.247 123.376 126.817 117.099 131.959 111.959C137.102 106.82 143.379 104.25 150.792 104.25C158.204 104.25 164.483 106.82 169.628 111.959C174.773 117.099 177.342 123.376 177.333 130.792C177.333 133.786 176.857 136.61 175.904 139.265C174.951 141.919 173.658 144.267 172.025 146.308L197.75 172.033L192.033 177.75ZM150.792 149.167C155.896 149.167 160.235 147.381 163.809 143.809C167.384 140.238 169.169 135.899 169.167 130.792C169.164 125.685 167.378 121.347 163.809 117.778C160.241 114.209 155.901 112.422 150.792 112.417C145.682 112.411 141.344 114.198 137.778 117.778C134.212 121.358 132.425 125.696 132.417 130.792C132.409 135.888 134.196 140.227 137.778 143.809C141.361 147.392 145.698 149.178 150.792 149.167Z" fill="#8A38F5" fill-opacity="0.56"/>
<path d="M149 15C153.875 15 156 12.949 156 8C156 12.949 158.11 15 163 15C158.11 15 156 17.11 156 22C156 17.11 153.875 15 149 15ZM143 6.5C146.134 6.5 147.5 5.182 147.5 2C147.5 5.182 148.857 6.5 152 6.5C148.857 6.5 147.5 7.857 147.5 11C147.5 7.857 146.134 6.5 143 6.5Z" fill="#8A38F5" fill-opacity="0.4" stroke="#8A38F5" stroke-opacity="0.4" stroke-width="1.5" stroke-linejoin="round"/>
<path d="M8 39C12.875 39 15 36.949 15 32C15 36.949 17.11 39 22 39C17.11 39 15 41.11 15 46C15 41.11 12.875 39 8 39ZM2 30.5C5.134 30.5 6.5 29.182 6.5 26C6.5 29.182 7.857 30.5 11 30.5C7.857 30.5 6.5 31.857 6.5 35C6.5 31.857 5.134 30.5 2 30.5Z" fill="#8A38F5" fill-opacity="0.4" stroke="#8A38F5" stroke-opacity="0.4" stroke-width="1.5" stroke-linejoin="round"/>
<path d="M56 189C60.875 189 63 186.949 63 182C63 186.949 65.11 189 70 189C65.11 189 63 191.11 63 196C63 191.11 60.875 189 56 189ZM50 180.5C53.134 180.5 54.5 179.182 54.5 176C54.5 179.182 55.857 180.5 59 180.5C55.857 180.5 54.5 181.857 54.5 185C54.5 181.857 53.134 180.5 50 180.5Z" fill="#8A38F5" fill-opacity="0.4" stroke="#8A38F5" stroke-opacity="0.4" stroke-width="1.5" stroke-linejoin="round"/>
</svg>
