<svg width="31" height="31" viewBox="0 0 31 31" fill="none" xmlns="http://www.w3.org/2000/svg">
<path fill-rule="evenodd" clip-rule="evenodd" d="M15.2062 5.06865C13.4331 5.06833 11.691 5.53306 10.1536 6.41646C8.61626 7.29986 7.3375 8.57103 6.44496 10.1031C5.55243 11.6351 5.07733 13.3745 5.0671 15.1476C5.05687 16.9206 5.51186 18.6653 6.38665 20.2076C6.97793 19.4392 7.73801 18.817 8.60812 18.3892C9.47823 17.9614 10.4351 17.7394 11.4047 17.7404H19.0077C19.9773 17.7394 20.9342 17.9614 21.8043 18.3892C22.6744 18.817 23.4345 19.4392 24.0257 20.2076C24.9005 18.6653 25.3555 16.9206 25.3453 15.1476C25.3351 13.3745 24.86 11.6351 23.9674 10.1031C23.0749 8.57103 21.7961 7.29986 20.2588 6.41646C18.7214 5.53306 16.9793 5.06833 15.2062 5.06865ZM25.2714 22.9054C25.4302 22.6985 25.5823 22.4864 25.7276 22.2693C27.1324 20.1819 27.8812 17.7222 27.878 15.2061C27.878 8.20745 22.2048 2.5343 15.2062 2.5343C8.20758 2.5343 2.53444 8.20745 2.53444 15.2061C2.53044 17.9897 3.44685 20.6966 5.14102 22.9054L5.13468 22.9282L5.58453 23.4516C6.77299 24.841 8.24862 25.9563 9.90969 26.7204C11.5708 27.4846 13.3778 27.8794 15.2062 27.8778C15.4799 27.8778 15.7519 27.8694 16.0223 27.8525C18.3087 27.7083 20.5127 26.9438 22.3974 25.6413C23.2988 25.0194 24.1157 24.2834 24.8279 23.4516L25.2777 22.9282L25.2714 22.9054ZM15.2062 7.60301C14.198 7.60301 13.231 8.00352 12.5181 8.71645C11.8052 9.42937 11.4047 10.3963 11.4047 11.4045C11.4047 12.4128 11.8052 13.3797 12.5181 14.0926C13.231 14.8055 14.198 15.2061 15.2062 15.2061C16.2144 15.2061 17.1814 14.8055 17.8943 14.0926C18.6072 13.3797 19.0077 12.4128 19.0077 11.4045C19.0077 10.3963 18.6072 9.42937 17.8943 8.71645C17.1814 8.00352 16.2144 7.60301 15.2062 7.60301Z" fill="black"/>
</svg>
