<svg width="23" height="23" viewBox="0 0 23 23" fill="none" xmlns="http://www.w3.org/2000/svg">
<path d="M18.5183 19.154L12.567 13.2027C12.0918 13.6076 11.5453 13.9209 10.9276 14.1427C10.3098 14.3644 9.68891 14.4753 9.06483 14.4753C7.54549 14.4753 6.25803 13.9475 5.20248 12.892C4.14692 11.8358 3.61914 10.548 3.61914 9.02867C3.61914 7.50933 4.14692 6.22188 5.20248 5.16632C6.25803 4.11076 7.54549 3.58267 9.06483 3.58203C10.5842 3.5814 11.8719 4.10949 12.9281 5.16632C13.9843 6.22314 14.5121 7.51059 14.5115 9.02867C14.5115 9.68887 14.3946 10.3278 14.1608 10.9456C13.927 11.5633 13.6197 12.0918 13.2389 12.5308L19.1902 18.4812L18.5183 19.154ZM9.06578 13.524C10.3266 13.524 11.391 13.09 12.2591 12.222C13.1271 11.3539 13.5611 10.2892 13.5611 9.02772C13.5611 7.76625 13.1271 6.70182 12.2591 5.83444C11.391 4.96706 10.3266 4.53305 9.06578 4.53241C7.80494 4.53178 6.74019 4.96579 5.87155 5.83444C5.0029 6.70309 4.56889 7.76751 4.56952 9.02772C4.57016 10.2879 5.00416 11.3524 5.87155 12.221C6.73893 13.0897 7.80336 13.5237 9.06483 13.523" fill="black"/>
</svg>
