<svg width="40" height="29" viewBox="0 0 40 29" fill="none" xmlns="http://www.w3.org/2000/svg">
<path d="M9.51867 0.240167C12.0798 8.19564e-08 15.3743 0 19.6332 0H19.7835C24.0405 0 27.335 8.19564e-08 29.8962 0.240167C32.4757 0.484 34.5107 0.9845 36.146 2.1285C37.8473 3.32017 38.6705 4.89867 39.0555 6.908C39.4167 8.78533 39.4167 11.1632 39.4167 14.0708V14.3458C39.4167 17.2535 39.4167 19.6313 39.0555 21.5087C38.6705 23.518 37.8473 25.0965 36.146 26.2882C34.5107 27.4322 32.4757 27.9327 29.8943 28.1765C27.335 28.4167 24.0405 28.4167 19.7835 28.4167H19.6332C15.3762 28.4167 12.0817 28.4167 9.5205 28.1765C6.941 27.9327 4.906 27.4322 3.27067 26.2882C1.56933 25.0965 0.746166 23.518 0.361166 21.5087C-1.63913e-07 19.6313 0 17.2535 0 14.3458V14.0708C0 11.1632 -1.63913e-07 8.78533 0.361166 6.908C0.746166 4.89867 1.56933 3.32017 3.27067 2.1285C4.906 0.9845 6.941 0.484 9.52233 0.240167M18.8998 8.6075C18.4317 8.29634 17.8598 8.18209 17.3081 8.28949C16.7563 8.39689 16.2691 8.7173 15.9518 9.18133C15.7135 9.5315 15.5852 9.94767 15.5852 10.373V18.0437C15.585 18.428 15.689 18.8053 15.8861 19.1352C16.0832 19.4652 16.3661 19.7356 16.7046 19.9176C17.0431 20.0997 17.4246 20.1866 17.8086 20.1691C18.1925 20.1516 18.5646 20.0304 18.8852 19.8183L24.706 16.016C25.0003 15.8245 25.2424 15.5628 25.4104 15.2545C25.5785 14.9462 25.6672 14.601 25.6687 14.2499C25.6701 13.8988 25.5843 13.5528 25.4188 13.2431C25.2533 12.9334 25.0134 12.6698 24.7207 12.4758L18.8998 8.6075Z" fill="#2B2B2B"/>
</svg>
